# xmcd CD database file
#
# Track frame offsets:
#	150
#	12137
#	35475
#	42130
#	56321
#	67783
#	84349
#	119733
#	147201
#	176276
#
# Disc length: 2853 seconds
#
# Revision: 0
# Processed by: cddbd v1.5.2PL0 Copyright (c) Steve Scherf et al.
# Submitted via: CDex 1.51
#
DISCID=750b230a
DTITLE=Mark O'Leary - Awakening
DYEAR=2006
DGENRE=Jazz
TTITLE0=Bello Corazon
TTITLE1=Last Light
TTITLE2=First Light
TTITLE3=In A Moment
TTITLE4=Awakening
TTITLE5=Kymer
TTITLE6=Melting
TTITLE7=MTF
TTITLE8=Paths
TTITLE9=Prelude
EXTD=YEAR: 2006
EXTT0=
EXTT1=
EXTT2=
EXTT3=
EXTT4=
EXTT5=
EXTT6=
EXTT7=
EXTT8=
EXTT9=
PLAYORDER=
